<?xml version="1.0" standalone="no"?>
<!DOCTYPE svg PUBLIC "-//W3C//DTD SVG 20010904//EN"
 "http://www.w3.org/TR/2001/REC-SVG-20010904/DTD/svg10.dtd">
<svg version="1.0" xmlns="http://www.w3.org/2000/svg"
 width="1024.000000pt" height="1024.000000pt" viewBox="0 0 1024.000000 1024.000000"
 preserveAspectRatio="xMidYMid meet">
<metadata>
Created by potrace 1.11, written by Peter Selinger 2001-2013
</metadata>
<g transform="translate(0.000000,1024.000000) scale(0.100000,-0.100000)"
fill="#000000" stroke="none">
<path d="M0 5120 l0 -5120 5120 0 5120 0 0 5120 0 5120 -5120 0 -5120 0 0
-5120z m1980 3016 c835 -582 1518 -1074 1630 -1173 l44 -40 -39 -34 c-106 -90
-172 -161 -217 -229 -27 -41 -51 -76 -52 -78 -2 -1 -127 127 -277 285 -493
518 -748 782 -1144 1182 l-390 394 115 -78 c63 -43 212 -146 330 -229z m1664
-76 c356 -34 699 -177 922 -383 67 -62 71 -64 94 -51 59 33 236 96 360 128
277 72 490 99 790 98 230 0 399 -16 626 -57 453 -84 769 -215 1072 -445 115
-88 157 -124 445 -389 80 -73 172 -153 204 -177 82 -63 225 -130 318 -152 l80
-19 -50 -26 c-106 -53 -241 -59 -395 -17 -41 12 -158 61 -260 110 -413 197
-553 244 -809 269 -121 13 -281 14 -298 3 -7 -5 29 -13 85 -20 301 -38 660
-158 928 -311 359 -204 630 -491 803 -851 91 -190 177 -451 104 -315 -101 186
-244 348 -404 455 -79 53 -218 130 -233 130 -3 0 24 -42 60 -92 36 -51 94
-150 128 -219 224 -453 258 -923 101 -1394 -80 -241 -189 -457 -453 -903 -331
-560 -485 -970 -532 -1422 -6 -58 -13 -130 -17 -160 l-6 -55 -13 50 c-46 167
-70 463 -54 668 22 288 74 470 227 792 190 398 250 536 277 643 23 88 19 87
-15 -3 -68 -186 -194 -404 -331 -573 -300 -372 -787 -672 -1260 -776 -191 -42
-287 -51 -538 -50 -199 1 -299 8 -650 43 -376 39 -433 42 -605 38 -174 -5
-300 -20 -394 -47 -19 -5 -37 -7 -40 -4 -13 13 141 143 215 181 182 95 316
121 679 133 149 5 324 16 390 25 233 31 466 95 615 170 96 49 238 146 290 200
l45 47 -40 -17 c-133 -57 -171 -70 -270 -95 -300 -76 -654 -63 -978 34 -361
110 -696 310 -1058 632 l-109 97 22 39 c25 45 69 81 132 109 l44 19 118 -40
c253 -84 527 -124 854 -124 244 0 369 12 565 55 92 20 328 90 322 95 -2 2 -55
-4 -118 -13 -83 -12 -188 -16 -389 -17 -301 0 -416 14 -600 71 l-85 26 67 13
c365 69 785 267 1045 493 237 206 385 473 424 768 14 104 7 357 -12 453 l-13
65 -7 -82 c-14 -155 -78 -341 -161 -468 -68 -105 -194 -227 -302 -294 -47 -30
-89 -52 -91 -49 -3 3 -1 29 5 58 5 29 10 109 10 179 0 223 -42 405 -140 608
-62 130 -169 295 -244 378 l-46 50 19 -45 c10 -25 37 -85 59 -135 21 -49 58
-146 80 -215 133 -408 114 -705 -69 -1089 -131 -276 -253 -406 -434 -464 -136
-45 -384 -76 -679 -85 l-201 -7 -100 -48 c-96 -46 -236 -143 -254 -175 -5 -9
-3 -35 5 -65 7 -28 18 -104 25 -168 19 -186 -11 -326 -84 -397 l-32 -31 -220
-10 c-121 -6 -329 -13 -461 -17 l-241 -7 -43 71 c-79 135 -250 558 -250 622 0
86 225 588 443 985 368 672 741 1196 1158 1630 l87 90 13 80 c8 47 13 160 13
275 -1 224 -18 331 -77 491 -34 90 -34 93 -11 64 98 -117 259 -389 353 -595
20 -44 3 46 -25 130 -62 187 -185 395 -316 535 -74 79 -216 196 -289 237 -21
12 -39 25 -39 30 0 10 -7 10 124 -2z m751 -4758 c104 -58 222 -112 350 -158
50 -18 83 -34 75 -37 -8 -3 -73 -14 -145 -26 -415 -68 -816 -218 -1121 -419
-308 -203 -588 -511 -690 -759 -33 -80 -30 -60 10 76 70 234 175 461 303 655
218 329 553 619 883 766 l105 47 70 -47 c39 -26 111 -70 160 -98z"/>
<path d="M4285 5543 c-97 -18 -476 -21 -609 -4 -50 6 -92 8 -95 5 -3 -3 9 -34
27 -68 38 -73 102 -142 166 -180 40 -23 141 -56 172 -56 17 0 142 100 240 193
77 72 85 77 126 77 31 0 50 6 61 18 33 36 31 37 -88 15z"/>
<path d="M2416 4248 c-9 -12 -16 -25 -16 -29 0 -3 20 -26 44 -51 52 -51 65
-99 47 -166 -6 -25 -10 -47 -7 -49 10 -11 66 10 89 33 63 63 36 182 -59 254
-47 35 -77 38 -98 8z"/>
</g>
</svg>
